<svg width="27" height="21" viewBox="0 0 27 21" fill="none" xmlns="http://www.w3.org/2000/svg">
<path d="M15.1634 5.33205C19.2561 5.33205 21.5779 8.04067 21.915 11.3125H22.0183C24.6527 11.3125 26.7878 13.4424 26.7878 16.069C26.7878 18.6963 24.6527 20.8256 22.0183 20.8256H8.30792C5.67486 20.8256 3.53973 18.6963 3.53973 16.069C3.53973 13.4424 5.67486 11.3125 8.30856 11.3125H8.4119C8.75161 8.01936 11.0714 5.33205 15.1641 5.33205H15.1634ZM15.1634 6.9434C12.4115 6.9434 10.0129 9.17023 10.0129 12.2457C10.0129 12.7333 9.58861 13.1163 9.10359 13.1163H8.1865C6.51057 13.1163 5.15302 14.4809 5.15302 16.1646C5.15302 17.8489 6.51121 19.2142 8.1865 19.2142H22.1404C23.8157 19.2142 25.1739 17.8489 25.1739 16.1653C25.1739 14.4809 23.8157 13.1156 22.1404 13.1156H21.2233C20.7376 13.1156 20.314 12.7333 20.314 12.2463C20.314 9.13084 17.9153 6.94405 15.1634 6.94405V6.9434ZM3.99698 10.6886C4.07292 10.8723 4.07804 11.0777 4.01136 11.265C3.94467 11.4522 3.81092 11.6082 3.63596 11.7025L3.56169 11.7381L2.06917 12.3587C1.87858 12.4398 1.66401 12.4442 1.47031 12.3708C1.27661 12.2974 1.11877 12.152 1.02979 11.9649C0.940814 11.7779 0.927579 11.5637 0.992856 11.3671C1.05813 11.1705 1.19687 11.0068 1.38006 10.9101L1.45434 10.8746L2.94686 10.2539C3.14367 10.1725 3.36478 10.1725 3.56158 10.254C3.75838 10.3355 3.91476 10.4918 3.99634 10.6886H3.99698ZM12.3928 4.46146L12.3528 4.47438C11.7554 4.66942 11.2006 4.92776 10.693 5.24292C9.99937 4.94943 9.23043 4.884 8.49721 5.05608C7.76399 5.22816 7.10444 5.62884 6.61381 6.20025C6.12319 6.77167 5.82688 7.48424 5.76769 8.23505C5.7085 8.98587 5.88949 9.73606 6.28452 10.3773C5.79832 10.5509 5.3366 10.7867 4.91084 11.0787C4.31662 10.061 4.09384 8.86874 4.28049 7.70518C4.46714 6.54162 5.05166 5.47884 5.93435 4.69809C6.81705 3.91735 7.94326 3.467 9.12091 3.42385C10.2986 3.3807 11.4547 3.74742 12.3922 4.46146H12.3928ZM1.97617 4.57771L2.05819 4.60742L3.55588 5.24615C3.96275 5.41794 4.15779 5.88875 3.99181 6.29821C3.83681 6.6799 3.42154 6.87301 3.03598 6.75676L2.95461 6.72769L1.45627 6.08896C1.26055 6.00536 1.10537 5.8484 1.024 5.65174C0.942626 5.45507 0.941544 5.23435 1.02098 5.0369C1.17598 4.65521 1.59061 4.46211 1.97617 4.57836V4.57771ZM6.73467 0.590985L6.77019 0.665256L7.39019 2.15455C7.46797 2.34545 7.46978 2.55888 7.39524 2.75107C7.3207 2.94327 7.17547 3.09967 6.98931 3.1882C6.80314 3.27674 6.59017 3.29071 6.39404 3.22725C6.19791 3.16378 6.03348 3.02769 5.93448 2.84688L5.89896 2.77261L5.27896 1.28332C5.20118 1.09241 5.19937 0.878986 5.27391 0.686792C5.34845 0.494598 5.49368 0.338199 5.67984 0.249661C5.86601 0.161124 6.07898 0.147155 6.27511 0.210619C6.47124 0.274084 6.63567 0.410172 6.73467 0.590985ZM12.5788 0.229318C12.967 0.390131 13.1652 0.817026 13.0503 1.21098L13.0206 1.29494L12.3799 2.76486C12.2987 2.95586 12.1479 3.10878 11.958 3.19253C11.7682 3.27629 11.5535 3.28458 11.3577 3.21573C11.162 3.14688 10.9998 3.00606 10.9041 2.82189C10.8085 2.63773 10.7865 2.42405 10.8428 2.2243L10.8725 2.14034L11.5119 0.670422C11.553 0.571402 11.6132 0.481445 11.689 0.405687C11.7649 0.32993 11.8549 0.269855 11.954 0.228895C12.0531 0.187934 12.1592 0.166889 12.2664 0.166962C12.3737 0.167035 12.4798 0.188223 12.5788 0.229318Z" fill="white"/>
</svg>
