<svg width="25" height="23" viewBox="0 0 25 23" fill="none" xmlns="http://www.w3.org/2000/svg">
<path d="M12.3743 0.875C16.731 0.875 19.2026 3.58427 19.5621 6.85542H19.6721C22.4757 6.85542 24.7486 8.98537 24.7486 11.612C24.7486 14.2392 22.4757 16.3685 19.6721 16.3685L18.4876 16.3692L18.4848 16.375H18.0819L16.7269 18.5579C16.67 18.6495 16.5945 18.7297 16.5046 18.7939C16.4147 18.858 16.3123 18.905 16.2031 18.932C16.094 18.9589 15.9802 18.9655 15.8684 18.9512C15.7565 18.9368 15.6488 18.902 15.5513 18.8485C15.4537 18.7951 15.3684 18.7242 15.3001 18.6397C15.2318 18.5553 15.1818 18.4591 15.1531 18.3565C15.1244 18.254 15.1174 18.1471 15.1326 18.0421C15.1479 17.937 15.185 17.8358 15.2419 17.7442L16.0964 16.3685L13.1684 16.3692L13.1663 16.375H12.5819L11.2269 18.5579C11.17 18.6495 11.0945 18.7297 11.0046 18.7939C10.9147 18.858 10.8123 18.905 10.7031 18.932C10.594 18.9589 10.4802 18.9655 10.3684 18.9512C10.2565 18.9368 10.1488 18.902 10.0513 18.8485C9.95374 18.7951 9.86839 18.7242 9.80008 18.6397C9.73176 18.5553 9.68181 18.4591 9.65308 18.3565C9.62435 18.254 9.61741 18.1471 9.63264 18.0421C9.64788 17.937 9.685 17.8358 9.74187 17.7442L10.5964 16.3685L7.84987 16.3692L7.84781 16.375H7.08262L5.72687 18.5579C5.67 18.6495 5.59447 18.7297 5.50461 18.7939C5.41474 18.858 5.3123 18.905 5.20314 18.932C5.09397 18.9589 4.98021 18.9655 4.86836 18.9512C4.75651 18.9368 4.64876 18.902 4.55125 18.8485C4.45374 18.7951 4.36839 18.7242 4.30008 18.6397C4.23176 18.5553 4.18181 18.4591 4.15308 18.3565C4.12435 18.254 4.11741 18.1471 4.13264 18.0421C4.14788 17.937 4.185 17.8358 4.24188 17.7442L5.09644 16.3685H5.0765C2.27287 16.3685 0 14.2392 0 11.612C0 8.98537 2.27287 6.85542 5.0765 6.85542H5.1865C5.54812 3.56231 8.01762 0.875 12.375 0.875H12.3743ZM12.3743 2.48635C9.44488 2.48635 6.8915 4.71319 6.8915 7.78865C6.8915 8.27625 6.4405 8.65923 5.9235 8.65923H4.94725C3.16388 8.65923 1.71806 10.0239 1.71806 11.7076C1.71806 13.3919 3.16388 14.7572 4.94725 14.7572H19.8014C21.5847 14.7572 23.0306 13.3919 23.0306 11.7082C23.0306 10.0239 21.5847 8.65858 19.8014 8.65858H18.8251C18.3081 8.65858 17.8571 8.27625 17.8571 7.78929C17.8571 4.67379 15.3038 2.487 12.3743 2.487V2.48635Z" fill="white"/>
<path d="M7.99562 19.391C8.09314 19.4445 8.17851 19.5154 8.24685 19.5998C8.31518 19.6842 8.36514 19.7805 8.39387 19.883C8.4226 19.9856 8.42954 20.0925 8.41429 20.1975C8.39904 20.3026 8.3619 20.4038 8.30499 20.4954L7.10187 22.4329C7.04499 22.5245 6.96946 22.6047 6.8796 22.6689C6.78973 22.7331 6.68729 22.78 6.57813 22.807C6.46896 22.8339 6.3552 22.8405 6.24335 22.8262C6.1315 22.8118 6.02375 22.777 5.92624 22.7236C5.82873 22.6701 5.74339 22.5992 5.67507 22.5148C5.60675 22.4303 5.5568 22.3341 5.52807 22.2316C5.49935 22.129 5.4924 22.0221 5.50764 21.9171C5.52287 21.812 5.55999 21.7108 5.61687 21.6192L6.81999 19.6817C6.87685 19.5901 6.95237 19.5099 7.04223 19.4457C7.13209 19.3815 7.23453 19.3345 7.34371 19.3076C7.45288 19.2806 7.56665 19.274 7.67851 19.2884C7.79036 19.3027 7.89812 19.3376 7.99562 19.391Z" fill="white"/>
<path d="M13.805 20.4954C13.8619 20.4038 13.899 20.3026 13.9142 20.1975C13.9295 20.0924 13.9225 19.9856 13.8938 19.883C13.8651 19.7805 13.8151 19.6843 13.7468 19.5998C13.6785 19.5154 13.5931 19.4445 13.4956 19.391C13.3981 19.3376 13.2904 19.3027 13.1785 19.2884C13.0667 19.2741 12.9529 19.2806 12.8437 19.3076C12.7346 19.3346 12.6321 19.3815 12.5423 19.4457C12.4524 19.5099 12.3769 19.5901 12.32 19.6817L11.1169 21.6192C11.06 21.7108 11.0229 21.812 11.0076 21.9171C10.9924 22.0221 10.9993 22.129 11.0281 22.2315C11.0568 22.3341 11.1068 22.4303 11.1751 22.5147C11.2434 22.5992 11.3287 22.6701 11.4262 22.7235C11.5237 22.777 11.6315 22.8118 11.7434 22.8261C11.8552 22.8405 11.969 22.8339 12.0781 22.8069C12.1873 22.78 12.2897 22.733 12.3796 22.6689C12.4695 22.6047 12.545 22.5245 12.6019 22.4329L13.805 20.4954Z" fill="white"/>
</svg>
