<svg width="22" height="19" viewBox="0 0 22 19" fill="none" xmlns="http://www.w3.org/2000/svg">
<path d="M10.9961 1.71092C12.5842 1.81567 14.1141 2.25593 15.4414 2.99015C16.7686 3.72437 17.8495 4.72833 18.5819 5.90727C19.3143 7.08621 19.6741 8.40123 19.6274 9.72822C19.5807 11.0552 19.1289 12.3504 18.3148 13.4915C17.5007 14.6326 16.3511 15.582 14.9744 16.2501C13.5978 16.9182 12.0396 17.283 10.4468 17.31C8.85407 17.3369 7.27935 17.0252 5.87129 16.4042C4.46323 15.7833 3.26829 14.8736 2.39924 13.7609C5.02986 13.1672 8.61674 11.7265 10.1992 8.21248C11.2342 5.90936 11.2942 3.62186 10.9961 1.71248V1.71092ZM21.5074 9.49998C21.5073 8.24126 21.203 6.99544 20.6128 5.83682C20.0225 4.67819 19.1583 3.63049 18.0716 2.75618C16.985 1.88186 15.6983 1.19885 14.2881 0.747874C12.8779 0.296893 11.3731 0.0871773 9.86361 0.131233C9.72851 0.13493 9.59596 0.162932 9.47506 0.213317C9.35416 0.263702 9.24776 0.335279 9.16316 0.42314C9.07857 0.511002 9.01777 0.61307 8.98495 0.722345C8.95212 0.831621 8.94804 0.94552 8.97299 1.05623C9.40424 2.95311 9.49799 5.31873 8.44236 7.66248C6.94236 10.9969 3.18861 12.1 0.797987 12.4609C0.655672 12.4824 0.521241 12.531 0.40521 12.6029C0.289179 12.6748 0.194695 12.7682 0.129147 12.8756C0.0635994 12.983 0.028766 13.1017 0.027372 13.2222C0.0259781 13.3427 0.0580611 13.4618 0.121112 13.5703C1.22692 15.4842 3.07989 17.0284 5.3765 17.95C7.67312 18.8715 10.2772 19.1159 12.7622 18.6429C15.2473 18.1699 17.4659 17.0077 19.0547 15.3467C20.6435 13.6856 21.5082 11.6242 21.5074 9.49998Z" fill="white"/>
</svg>
