<svg width="24" height="25" viewBox="0 0 24 25" fill="none" xmlns="http://www.w3.org/2000/svg">
<path d="M13.45 6.7C17.0242 6.7 19.0513 8.98085 19.3457 11.7373H19.4356C21.7353 11.7373 23.6 13.5309 23.6 15.7436C23.6 17.9563 21.7353 19.75 19.4356 19.75H18.4293L18.4046 19.8094L16.2514 23.7302C16.165 23.8895 16.022 24.0106 15.8507 24.0698C15.6795 24.1289 15.4922 24.1217 15.326 24.0497C15.1597 23.9776 15.0264 23.846 14.9524 23.6806C14.8784 23.5152 14.869 23.328 14.9261 23.156L14.9783 23.0371L16.785 19.75H14.0967L14.0706 19.8094L11.9173 23.7302C11.8309 23.8895 11.688 24.0106 11.5167 24.0698C11.3454 24.1289 11.1582 24.1217 10.9919 24.0497C10.8256 23.9776 10.6924 23.846 10.6184 23.6806C10.5444 23.5152 10.535 23.328 10.592 23.156L10.6442 23.0371L12.4524 19.75H9.738L7.5688 23.7302C7.48237 23.8895 7.33943 24.0106 7.16814 24.0698C6.99685 24.1289 6.80963 24.1217 6.64336 24.0497C6.47709 23.9776 6.34382 23.846 6.26981 23.6806C6.1958 23.5152 6.18641 23.328 6.2435 23.156L6.2957 23.0371L8.0879 19.75H7.4644C5.1647 19.75 3.3 17.9563 3.3 15.7436C3.3 13.5309 5.1647 11.7373 7.4644 11.7373H7.5543C7.85155 8.962 9.87575 6.7 13.45 6.7ZM13.45 8.15C11.0575 8.15 8.97385 9.9915 8.97385 12.5362C8.97385 12.9393 8.60555 13.2554 8.1836 13.2554H7.3861C5.9303 13.254 4.75 14.385 4.75 15.777C4.75 17.169 5.9303 18.3 7.3861 18.3H19.5139C20.9697 18.3 22.15 17.169 22.15 15.777C22.15 14.385 20.9697 13.254 19.5139 13.254H18.7164C18.2959 13.2555 17.9261 12.9393 17.9261 12.5362C17.9261 9.9596 15.8425 8.15 13.45 8.15ZM3.01435 10.615C3.07021 10.7756 3.06785 10.9507 3.00769 11.1097C2.94752 11.2688 2.83337 11.4016 2.6852 11.485L2.56485 11.5372L1.4034 11.9374C1.232 11.9974 1.04433 11.9909 0.877508 11.9191C0.710689 11.8474 0.576866 11.7156 0.502506 11.55C0.428146 11.3843 0.418665 11.1968 0.475937 11.0244C0.533208 10.8521 0.653063 10.7076 0.811796 10.6193L0.930696 10.5671L2.0936 10.1669C2.27531 10.1046 2.47434 10.1169 2.64698 10.2012C2.81962 10.2855 2.95175 10.4348 3.01435 10.6164V10.615ZM10.434 4.525C10.9168 4.7599 11.3417 5.06585 11.7013 5.424C11.1126 5.54435 10.5616 5.7285 10.0541 5.96775C9.39921 5.57357 8.62798 5.4185 7.87163 5.52892C7.11529 5.63933 6.42058 6.00842 5.90571 6.57337C5.39085 7.13831 5.08766 7.86421 5.04772 8.62753C5.00779 9.39084 5.23359 10.1444 5.6867 10.76C5.2082 10.9021 4.7587 11.1094 4.34545 11.369C3.78446 10.4956 3.52461 9.46272 3.60554 8.42786C3.68647 7.39301 4.10374 6.41305 4.79367 5.63751C5.48361 4.86197 6.40832 4.33344 7.42671 4.13257C8.44511 3.9317 9.50126 4.06952 10.434 4.525ZM1.72965 4.7715L1.85 4.8179L2.9549 5.35585C3.11778 5.43503 3.24513 5.57231 3.31188 5.74067C3.37864 5.90903 3.37996 6.09628 3.31559 6.26556C3.25122 6.43485 3.12583 6.57391 2.96408 6.65539C2.80233 6.73686 2.61594 6.75484 2.4416 6.7058L2.3198 6.6594L1.2149 6.12145C1.05201 6.04227 0.924662 5.90499 0.857909 5.73663C0.791155 5.56827 0.789833 5.38102 0.854202 5.21174C0.91857 5.04245 1.04397 4.90339 1.20572 4.82191C1.36747 4.74044 1.55385 4.72246 1.7282 4.7715H1.72965ZM11.9855 1.32775C12.1382 1.40224 12.2598 1.52796 12.3293 1.68299C12.3987 1.83802 12.4115 2.0125 12.3654 2.176L12.319 2.2978L11.781 3.4027C11.7019 3.56558 11.5646 3.69293 11.3962 3.75969C11.2279 3.82644 11.0406 3.82776 10.8713 3.7634C10.702 3.69903 10.563 3.57363 10.4815 3.41188C10.4 3.25013 10.3821 3.06374 10.4311 2.8894L10.4775 2.76615L11.0169 1.66125C11.1012 1.4887 11.2506 1.35667 11.4322 1.29415C11.6138 1.23162 11.8128 1.24371 11.9855 1.32775ZM6.49 1.28135L6.54365 1.40025L6.94385 2.56315C7.00268 2.73433 6.99535 2.92133 6.92329 3.08737C6.85124 3.25342 6.71968 3.38651 6.55448 3.46048C6.38928 3.53445 6.20238 3.54395 6.03053 3.48711C5.85868 3.43026 5.71431 3.31119 5.6258 3.1533L5.5736 3.0344L5.1734 1.87295C5.11549 1.70217 5.1233 1.51595 5.19532 1.35062C5.26733 1.1853 5.39836 1.05274 5.56285 0.978832C5.72733 0.904923 5.91346 0.894964 6.08489 0.950901C6.25632 1.00684 6.40076 1.12465 6.49 1.28135Z" fill="white"/>
</svg>
