<svg width="24" height="25" viewBox="0 0 24 25" fill="none" xmlns="http://www.w3.org/2000/svg">
<path d="M12.8125 1.53125C12.8125 1.30747 12.7269 1.09286 12.5745 0.934629C12.4222 0.776395 12.2155 0.6875 12 0.6875C11.7845 0.6875 11.5778 0.776395 11.4255 0.934629C11.2731 1.09286 11.1875 1.30747 11.1875 1.53125V3.21875C11.1875 3.44253 11.2731 3.65714 11.4255 3.81537C11.5778 3.9736 11.7845 4.0625 12 4.0625C12.2155 4.0625 12.4222 3.9736 12.5745 3.81537C12.7269 3.65714 12.8125 3.44253 12.8125 3.21875V1.53125ZM5.10512 4.14687C4.95189 3.99318 4.74665 3.90813 4.53361 3.91006C4.32058 3.91198 4.11679 4.00071 3.96615 4.15715C3.8155 4.31359 3.73005 4.52521 3.7282 4.74644C3.72635 4.96767 3.80825 5.1808 3.95625 5.33994L5.10512 6.533C5.25836 6.6867 5.4636 6.77174 5.67664 6.76982C5.88967 6.7679 6.09346 6.67916 6.2441 6.52272C6.39475 6.36628 6.4802 6.15466 6.48205 5.93343C6.4839 5.7122 6.402 5.49907 6.254 5.33994L5.10512 4.14687ZM20.0437 5.33994C20.1214 5.2621 20.1833 5.169 20.2258 5.06606C20.2684 4.96312 20.2908 4.8524 20.2918 4.74037C20.2927 4.62834 20.2721 4.51723 20.2313 4.41354C20.1904 4.30985 20.1301 4.21564 20.0538 4.13642C19.9775 4.05719 19.8868 3.99454 19.787 3.95212C19.6871 3.90969 19.5801 3.88835 19.4722 3.88932C19.3644 3.89029 19.2577 3.91357 19.1586 3.95779C19.0595 4.00201 18.9698 4.06629 18.8949 4.14687L17.746 5.33994C17.598 5.49907 17.5161 5.7122 17.518 5.93343C17.5198 6.15466 17.6053 6.36628 17.7559 6.52272C17.9065 6.67916 18.1103 6.7679 18.3234 6.76982C18.5364 6.77174 18.7416 6.6867 18.8949 6.533L20.0437 5.33994ZM1.4375 11.6562C1.22201 11.6562 1.01535 11.7451 0.862976 11.9034C0.710602 12.0616 0.625 12.2762 0.625 12.5C0.625 12.7238 0.710602 12.9384 0.862976 13.0966C1.01535 13.2549 1.22201 13.3438 1.4375 13.3438H3.0625C3.27799 13.3438 3.48465 13.2549 3.63702 13.0966C3.7894 12.9384 3.875 12.7238 3.875 12.5C3.875 12.2762 3.7894 12.0616 3.63702 11.9034C3.48465 11.7451 3.27799 11.6562 3.0625 11.6562H1.4375ZM20.9375 11.6562C20.722 11.6562 20.5153 11.7451 20.363 11.9034C20.2106 12.0616 20.125 12.2762 20.125 12.5C20.125 12.7238 20.2106 12.9384 20.363 13.0966C20.5153 13.2549 20.722 13.3438 20.9375 13.3438H22.5625C22.778 13.3438 22.9847 13.2549 23.137 13.0966C23.2894 12.9384 23.375 12.7238 23.375 12.5C23.375 12.2762 23.2894 12.0616 23.137 11.9034C22.9847 11.7451 22.778 11.6562 22.5625 11.6562H20.9375ZM6.254 19.6601C6.3316 19.5822 6.3935 19.4891 6.43608 19.3862C6.47866 19.2832 6.50108 19.1725 6.50202 19.0605C6.50295 18.9485 6.4824 18.8374 6.44154 18.7337C6.40069 18.63 6.34036 18.5358 6.26407 18.4565C6.18778 18.3773 6.09707 18.3147 5.99721 18.2722C5.89736 18.2298 5.79037 18.2085 5.68249 18.2094C5.5746 18.2104 5.46799 18.2337 5.36886 18.2779C5.26973 18.3221 5.18008 18.3864 5.10512 18.467L3.95625 19.6601C3.87865 19.7379 3.81675 19.831 3.77417 19.9339C3.73159 20.0369 3.70917 20.1476 3.70823 20.2596C3.7073 20.3717 3.72785 20.4828 3.76871 20.5865C3.80956 20.6902 3.86989 20.7844 3.94618 20.8636C4.02247 20.9428 4.11318 21.0055 4.21304 21.0479C4.31289 21.0903 4.41988 21.1117 4.52776 21.1107C4.63565 21.1097 4.74226 21.0864 4.84139 21.0422C4.94052 20.998 5.03017 20.9337 5.10512 20.8531L6.254 19.6601ZM18.8949 18.467C18.7416 18.3133 18.5364 18.2283 18.3234 18.2302C18.1103 18.2321 17.9065 18.3208 17.7559 18.4773C17.6053 18.6337 17.5198 18.8453 17.518 19.0666C17.5161 19.2878 17.598 19.5009 17.746 19.6601L18.8949 20.8531C18.9698 20.9337 19.0595 20.998 19.1586 21.0422C19.2577 21.0864 19.3644 21.1097 19.4722 21.1107C19.5801 21.1117 19.6871 21.0903 19.787 21.0479C19.8868 21.0055 19.9775 20.9428 20.0538 20.8636C20.1301 20.7844 20.1904 20.6902 20.2313 20.5865C20.2721 20.4828 20.2927 20.3717 20.2918 20.2596C20.2908 20.1476 20.2684 20.0369 20.2258 19.9339C20.1833 19.831 20.1214 19.7379 20.0437 19.6601L18.8949 18.467ZM12.8125 21.7812C12.8125 21.5575 12.7269 21.3429 12.5745 21.1846C12.4222 21.0264 12.2155 20.9375 12 20.9375C11.7845 20.9375 11.5778 21.0264 11.4255 21.1846C11.2731 21.3429 11.1875 21.5575 11.1875 21.7812V23.4688C11.1875 23.6925 11.2731 23.9071 11.4255 24.0654C11.5778 24.2236 11.7845 24.3125 12 24.3125C12.2155 24.3125 12.4222 24.2236 12.5745 24.0654C12.7269 23.9071 12.8125 23.6925 12.8125 23.4688V21.7812ZM12 5.75C10.2761 5.75 8.62279 6.46116 7.40381 7.72703C6.18482 8.9929 5.5 10.7098 5.5 12.5C5.5 14.2902 6.18482 16.0071 7.40381 17.273C8.62279 18.5388 10.2761 19.25 12 19.25C13.7239 19.25 15.3772 18.5388 16.5962 17.273C17.8152 16.0071 18.5 14.2902 18.5 12.5C18.5 10.7098 17.8152 8.9929 16.5962 7.72703C15.3772 6.46116 13.7239 5.75 12 5.75ZM7.125 12.5C7.125 11.1573 7.63861 9.86967 8.55285 8.92027C9.46709 7.97087 10.7071 7.4375 12 7.4375C13.2929 7.4375 14.5329 7.97087 15.4471 8.92027C16.3614 9.86967 16.875 11.1573 16.875 12.5C16.875 13.8427 16.3614 15.1303 15.4471 16.0797C14.5329 17.0291 13.2929 17.5625 12 17.5625C10.7071 17.5625 9.46709 17.0291 8.55285 16.0797C7.63861 15.1303 7.125 13.8427 7.125 12.5Z" fill="white"/>
</svg>
